<svg xmlns="http://www.w3.org/2000/svg" viewBox="0 0 333.67 333.44"><defs><style>.cls-1,.cls-2,.cls-4{fill:#3cb54a;stroke:#090909;stroke-miterlimit:10;}.cls-2{font-size:65.92px;letter-spacing:0.06em;}.cls-2,.cls-4{font-family:ShareTech-Regular, Share Tech;}.cls-3{letter-spacing:0.05em;}.cls-4{font-size:58.59px;letter-spacing:0.06em;}</style></defs><g id="Layer_2" data-name="Layer 2"><g id="Design_2" data-name="Design 2"><path class="cls-1" d="M155.07,49,122.52,59.86l1,3.69,15.86-3.11C113.56,69,92.92,82.58,91.31,112.61c-1.54,28.75,11.46,39.9,32.12,48.16l-11.49,3.48L132.7,176.1l-35.34-3.3c-.44-4.76-1-10.33-1.53-16.41l9.83,2.11c-32.95-35.21-31.31-56.29,9.53-97.92l-9.48,3,17.66-28.75-2.06-1.28L113.39,44c5.54-16.7,14.14-31.09,30.12-39.55,4.82-2.56,10-7.27,15.34-.32s8.44,14.05,2.66,22.15c-2.24,3.14-5.71,5.58-7.36,9C151.72,40.21,148.21,46.13,155.07,49Z"/><path class="cls-1" d="M85.38,167.83c-5.17-7.51-12.9-6.12-27.92,5.87l8.43,4.87-19.35,1.92c.75-9.21,3.23-15.91,12.09-19.65,8.38-3.54,16.16-8.5,25.11-13.32C84.35,155.07,84.89,161.65,85.38,167.83Z"/><path class="cls-1" d="M227.55,149.24c12.47,13.55,35.52,10.64,41.7,33.7C257,169,234.22,171.84,227.55,149.24Z"/><path class="cls-1" d="M213.8,132.29c8.23-21.67,3.3-39.54-12-55C221.45,90.77,228.42,120.37,213.8,132.29Z"/><path class="cls-1" d="M170.17,4.12c31.2,25.11,35.72,59.54,35.72,59.54Z"/><text class="cls-2" transform="translate(0.5 249.2)">SO<tspan class="cls-3" x="72.71" y="0">C</tspan><tspan x="103.49" y="0">odeOut</tspan></text><text class="cls-4" transform="translate(96.02 309.27)">2021</text></g></g></svg>